<?xml version="1.0" standalone="no"?>
<!DOCTYPE svg PUBLIC "-//W3C//DTD SVG 20010904//EN"
 "http://www.w3.org/TR/2001/REC-SVG-20010904/DTD/svg10.dtd">
<svg version="1.0" xmlns="http://www.w3.org/2000/svg"
 width="512.000000pt" height="512.000000pt" viewBox="0 0 512.000000 512.000000"
 preserveAspectRatio="xMidYMid meet">

<g transform="translate(0.000000,512.000000) scale(0.100000,-0.100000)"
fill="#00000" stroke="none">
<path d="M1890 5049 c-109 -22 -217 -107 -263 -207 -32 -68 -32 -226 0 -294
27 -58 93 -132 149 -164 49 -29 39 -3 129 -339 31 -115 58 -216 60 -222 2 -7
-14 -22 -38 -34 -74 -38 -200 -122 -271 -181 -38 -32 -72 -58 -76 -58 -4 0
-126 126 -271 280 l-264 280 -7 79 c-11 136 -77 242 -185 298 -72 38 -100 44
-183 44 -136 0 -250 -73 -312 -199 -30 -61 -33 -74 -33 -162 0 -85 3 -101 29
-153 32 -63 102 -134 162 -165 48 -24 138 -44 188 -40 33 2 43 -4 104 -65 67
-66 96 -79 120 -55 23 23 12 47 -45 97 -31 28 -55 52 -52 55 2 2 18 10 34 19
38 19 90 71 123 120 l25 38 48 -48 c26 -26 140 -147 253 -267 l207 -219 -34
-36 c-18 -20 -51 -58 -72 -84 l-38 -48 -66 65 c-76 76 -115 87 -127 39 -7 -25
1 -35 71 -100 l79 -72 -28 -48 c-86 -151 -159 -342 -193 -510 -27 -135 -25
-452 5 -589 139 -642 631 -1120 1267 -1230 50 -9 157 -17 240 -19 l149 -3 79
-289 c82 -299 93 -326 145 -336 34 -7 87 15 101 41 18 34 14 65 -47 350 -38
178 -55 275 -48 277 168 43 350 121 482 207 l71 45 131 -123 c122 -115 135
-124 171 -124 69 0 115 61 93 121 -5 13 -60 77 -121 141 l-112 117 80 91 c380
430 496 996 316 1537 -54 163 -153 343 -262 478 l-41 50 52 75 c49 71 230 270
246 270 4 0 11 -17 15 -37 19 -101 100 -208 182 -239 51 -20 143 -15 190 10
92 47 143 130 143 231 -1 126 -74 218 -192 239 -46 8 -148 -9 -207 -35 -24
-11 -46 -17 -49 -15 -2 3 9 34 26 70 38 81 109 154 189 195 70 35 84 58 53 83
-20 16 -25 16 -58 2 -84 -34 -165 -102 -215 -177 -38 -58 -77 -155 -77 -192 0
-18 -34 -58 -128 -152 -70 -71 -148 -158 -173 -195 -24 -37 -48 -68 -53 -68
-4 0 -39 29 -77 64 -190 176 -450 308 -726 368 -79 17 -134 21 -283 22 -102 1
-217 -3 -255 -7 l-70 -9 -53 249 c-29 136 -52 256 -52 266 0 11 10 32 21 49
29 40 59 139 59 193 0 95 -62 225 -133 279 -84 64 -204 95 -297 75z m185 -103
c218 -103 207 -425 -18 -511 -69 -26 -179 -17 -241 19 -55 32 -110 103 -127
163 -15 55 -8 148 16 198 27 56 94 120 146 138 69 24 164 21 224 -7z m-1316
-502 c65 -19 140 -86 173 -152 42 -88 24 -226 -39 -297 -136 -152 -386 -120
-469 60 -30 64 -33 170 -5 231 46 101 147 169 257 173 17 1 54 -6 83 -15z
m1455 -284 c27 -127 47 -233 44 -235 -6 -6 -211 -75 -214 -72 -2 1 -32 108
-67 237 l-63 235 67 6 c39 4 89 17 121 32 29 14 55 26 58 26 3 1 27 -103 54
-229z m2284 -277 c57 -42 79 -142 48 -217 -28 -67 -124 -111 -201 -92 -66 17
-138 120 -151 220 -6 44 -6 45 35 65 101 52 217 62 269 24z m-1547 -31 c47
-11 121 -32 165 -47 97 -33 264 -112 264 -125 0 -8 -41 -80 -55 -98 -1 -1 -35
5 -76 13 -176 37 -272 47 -509 52 -187 4 -279 1 -389 -11 -217 -24 -467 -78
-697 -151 -32 -11 85 92 171 149 178 118 364 192 585 232 112 20 429 12 541
-14z m604 -288 c44 -34 97 -80 118 -102 l39 -39 -57 -98 c-141 -244 -282 -586
-345 -835 -6 -25 -13 -51 -15 -58 -3 -8 -35 14 -87 60 -46 41 -100 86 -120
102 -21 16 -38 36 -38 46 0 31 68 258 121 405 82 226 270 601 294 588 5 -4 46
-34 90 -69z m-520 -13 c93 -14 239 -43 244 -47 10 -9 -115 -253 -126 -249 -7
2 -77 12 -155 21 -111 12 -199 15 -393 11 -265 -5 -400 -21 -624 -71 -107 -24
-117 -25 -170 -11 -47 12 -177 36 -329 61 l-33 5 21 30 c28 38 48 48 210 103
231 78 478 132 705 155 113 12 557 6 650 -8z m795 -268 c27 -38 69 -103 94
-146 l44 -79 -30 -51 c-55 -93 -164 -319 -216 -447 -50 -124 -142 -406 -142
-436 0 -9 -4 -14 -9 -12 -13 5 -211 237 -211 248 0 24 94 328 133 430 84 219
253 560 278 560 5 0 31 -30 59 -67z m-787 -93 c56 -8 87 -17 84 -24 -2 -6 -24
-67 -47 -134 -42 -121 -44 -124 -69 -117 -14 3 -120 9 -236 12 -206 5 -211 6
-267 34 -80 40 -276 120 -378 154 -80 27 -83 29 -55 37 29 8 271 44 350 52 82
8 533 -2 618 -14z m-1348 -45 c761 -152 1397 -541 1829 -1118 84 -114 193
-295 248 -416 36 -79 40 -94 29 -114 -16 -30 -154 -177 -166 -177 -6 0 -27 38
-49 85 -159 348 -485 730 -843 987 -387 279 -889 491 -1343 568 -36 6 -77 13
-92 16 l-28 5 31 62 c18 34 43 82 57 106 l25 43 66 -6 c36 -4 143 -22 236 -41z
m2349 -275 c28 -86 66 -263 66 -303 0 -13 -31 -89 -69 -168 -82 -173 -135
-308 -191 -489 -23 -74 -44 -141 -46 -149 -3 -8 -32 32 -67 90 -34 57 -72 118
-83 134 l-22 29 29 105 c36 134 109 347 161 471 58 137 179 371 189 364 5 -2
20 -41 33 -84z m-2657 10 c883 -168 1622 -653 2031 -1332 55 -90 142 -267 142
-286 0 -14 -127 -104 -192 -138 l-48 -24 -36 72 c-59 117 -139 245 -232 368
-103 138 -359 398 -492 500 -364 281 -758 472 -1213 589 -81 21 -150 40 -152
43 -5 5 11 75 36 161 12 41 25 67 34 67 8 0 63 -9 122 -20z m1540 -38 c40 -4
75 -10 78 -14 3 -3 -2 -36 -11 -72 -12 -48 -21 -66 -30 -62 -8 3 -49 29 -91
58 -43 28 -96 62 -118 75 l-40 23 70 -1 c39 0 102 -3 142 -7z m-1650 -278
c337 -76 724 -242 1016 -434 398 -261 700 -585 906 -971 l52 -97 -43 -17 c-24
-10 -83 -31 -133 -47 -85 -27 -91 -28 -103 -11 -7 10 -39 58 -71 106 -198 303
-525 616 -861 825 -236 147 -567 294 -802 357 l-68 18 0 121 c0 132 5 166 26
166 7 0 43 -7 81 -16z m2838 -266 c-25 -243 -87 -443 -195 -628 -75 -128 -80
-79 -15 143 24 85 64 205 88 268 47 121 117 279 124 279 2 0 1 -28 -2 -62z
m-2810 -128 c52 -17 95 -33 95 -36 0 -2 -20 -39 -44 -82 -24 -42 -53 -99 -66
-127 l-22 -50 -19 55 c-20 56 -52 178 -63 238 -7 41 -3 41 119 2z m255 -96
c36 -14 95 -41 133 -60 66 -34 68 -36 54 -57 -64 -99 -166 -327 -202 -450 -14
-50 -19 -56 -32 -46 -22 19 -99 129 -153 221 l-49 81 19 48 c43 109 142 289
158 289 5 0 37 -12 72 -26z m408 -207 c57 -34 106 -67 109 -73 2 -6 -21 -56
-51 -110 -62 -112 -134 -284 -166 -400 -12 -44 -25 -85 -29 -92 -8 -14 -92 45
-188 132 l-52 47 20 72 c39 141 122 333 202 465 23 40 18 41 155 -41z m265
-181 c117 -88 275 -235 379 -351 54 -60 96 -110 94 -112 -6 -6 -202 60 -329
111 -171 69 -347 156 -347 172 0 22 115 234 127 234 2 0 37 -24 76 -54z m-118
-325 c195 -94 410 -175 625 -236 52 -14 57 -19 104 -90 27 -42 47 -78 44 -80
-2 -3 -51 -10 -109 -16 -254 -27 -553 29 -788 147 l-89 44 25 92 c31 113 63
200 71 196 4 -2 57 -28 117 -57z m1653 -250 c94 -101 116 -131 94 -131 -5 0
-60 49 -123 110 -93 89 -111 111 -99 119 8 6 17 11 20 11 3 0 51 -49 108 -109z
m-795 -517 c32 -152 56 -278 53 -282 -4 -3 -10 -1 -15 4 -14 14 -153 533 -146
544 4 6 16 10 28 10 21 0 25 -17 80 -276z"/>
<path d="M967 3669 c-35 -20 -19 -53 62 -132 77 -75 105 -89 129 -65 24 24 11
47 -64 117 -90 84 -104 93 -127 80z"/>
</g>
</svg>
